<svg version="1.1" id="Capa_1" xmlns="http://www.w3.org/2000/svg" xmlns:xlink="http://www.w3.org/1999/xlink" x="0px" y="0px"
	 width="30" height="25" viewBox="0 0 457.568 457.568" style="enable-background:new 0 0 457.568 457.568;"
	 xml:space="preserve">
<g>
	<g>
		<path d="M415.201,81.104H42.367C18.968,81.104,0,100.072,0,123.471v37.1h457.568v-37.1
			C457.568,100.072,438.601,81.104,415.201,81.104z"/>
		<path d="M0,334.098c0,23.398,18.968,42.367,42.367,42.367h372.834c23.399,0,42.367-18.969,42.367-42.367V205.569H0V334.098z
			 M328.262,278.639c0-14.288,11.582-25.87,25.869-25.87h24.757c14.288,0,25.87,11.582,25.87,25.87v24.756
			c0,14.288-11.582,25.87-25.87,25.87h-24.757c-14.287,0-25.869-11.582-25.869-25.87V278.639z M61.583,301.675
			c0-3.159,2.562-5.72,5.72-5.72h88.181c3.158,0,5.719,2.561,5.719,5.72v17.397c0,3.16-2.561,5.719-5.719,5.719H67.303
			c-3.158,0-5.72-2.561-5.72-5.719V301.675z"/>
	</g>
</g>
<g>
</g>
<g>
</g>
<g>
</g>
<g>
</g>
<g>
</g>
<g>
</g>
<g>
</g>
<g>
</g>
<g>
</g>
<g>
</g>
<g>
</g>
<g>
</g>
<g>
</g>
<g>
</g>
<g>
</g>
</svg>
