<?xml version="1.0" encoding="utf-8"?>
<!-- Generator: Adobe Illustrator 18.0.0, SVG Export Plug-In . SVG Version: 6.00 Build 0)  -->
<!DOCTYPE svg PUBLIC "-//W3C//DTD SVG 1.1//EN" "http://www.w3.org/Graphics/SVG/1.1/DTD/svg11.dtd">
<svg version="1.1" id="Layer_1" xmlns="http://www.w3.org/2000/svg" xmlns:xlink="http://www.w3.org/1999/xlink" x="0px" y="0px"
	 viewBox="0 0 285.5 92.8" style="enable-background:new 0 0 285.5 92.8;" xml:space="preserve">
<style type="text/css">
	.st0{fill:#FFFFFF;}
	.st1{fill:#231E20;}
	.st2{fill:#A7A9AC;}
</style>
<g>
	<g id="XMLID_58_">
		<g id="XMLID_74_">
			<path id="XMLID_76_" class="st0" d="M39,86C21.7,75.7,0,60.8,0,34.5V6.8C7.9,3.8,20.2,0,39,0c18.9,0,31.9,4.1,39,6.8v27.8
				C77.9,61,55.3,76.3,39,86z"/>
		</g>
		<g id="XMLID_59_">
			<path id="XMLID_67_" class="st1" d="M50.7,50c0-0.6,0.5-1.5,0.5-2.3c0-1-1.2-1.3-2.1-1.4c-1.9-0.3-2.6-0.2-2.6-0.6
				c0-0.3,0.3-0.6,0.6-1.1c0.5-0.8,1.8-1,2.4-1.1c0.9-0.1,1.8-0.2,3-0.2c1.3,0,2.4,0.2,2.9,0.3c1.2,0.2,1.4,0.7,1.4,1.3
				c0,0.1,0,0.4,0,0.6c0,0.6-0.5,0.9-1.3,1c-0.2,0-0.5,0.1-0.6,0.1c-0.6,0.1-1.4,0.2-1.6,1c-0.6,1.6-1.6,2.9-2.3,2.9
				C50.8,50.3,50.7,50.2,50.7,50z M52.4,23.6c-0.1,0-0.3-0.1-0.3-0.4c0-0.3,0.2-0.6,0.6-1.2c1-1.3,2.3-2.9,2.8-2.9
				c0.2,0,0.4,0.2,0.7,0.7c0.2,0.3,0.3,0.9,0.3,1.4c0,1.7-0.6,3-1.5,4.3C54.5,25.2,53.7,24.4,52.4,23.6z M23.8,26.9
				c0.4,0,0.8-0.3,1.4-1c1.5-1.6,2.9-1.9,2.9-2.6c0-0.3-0.2-0.6-0.4-0.9c-1.6-2.5-2.3-3.8-3.2-5.6c-0.3-0.6-0.8-1.1-1.1-1.1
				c-0.5,0-1.1,0.6-1.5,1.2c-0.5,0.8-0.9,1.6-0.9,2.4c0,1.2,0.3,3.4,0.8,4.8C22.3,25.5,23.1,26.9,23.8,26.9z M41.6,32.6
				c0-1-1.1-2.5-3.1-2.5c-1.8,0-3.1,1.3-3.5,2.4c0.4,0.8,0.8,1.7,2.5,2.2c0.2,0.1,0.5,0.1,0.5,0.3c0,0.3-0.3,0.4-0.9,0.4
				c-1.9,0-3.1-0.8-3.6-1.5c-0.5,0.1-1.1,0.3-1.8,0.3c-0.6,0-0.9-0.4-0.9-0.9c0-0.3,0.1-0.7,0.3-1.1c0.1-0.2,0.2-0.5,0.3-0.6
				c0.3-0.6,0.8-1.9,2.5-2.9c0.2-0.1,0.7-0.4,1-0.6c1-0.6,1.8-0.7,2.9-0.7c0.1,0,0.8,0,0.9,0c1.4,0,2.1,0.4,2.8,0.9
				c1.3,1.1,2,1.7,2,2.4c0,0.9,0,1.6-0.8,2.5c-0.6,0.8-1.5,1.3-2.1,1.3c-0.2,0-0.2-0.1-0.2-0.2c0-0.1,0.1-0.2,0.3-0.3
				C41.2,33.6,41.4,32.9,41.6,32.6z M50.1,59.9c-0.3,0.1-1,0.2-3.9,0.2c-4.4,0-5.2-1.1-5.2-1.9c0-1.4,6.3-2.5,8.8-2.5
				c2.4,0,3.4,0.8,3.4,1.4C53.3,57.7,52.2,59.4,50.1,59.9z M24.6,72.8c4.6,3.6,9.5,6.8,14.3,9.6l0,0l0,0c0-4.3-0.1-6.9,2.8-10
				c1.2-1.2,2.4-2.5,3.5-3.7c0.8-0.9,1.5-1.5,1.9-1.5c0.3,0,0.4,0.1,0.4,0.5c0,0.4,0.2,1.8,1.1,3.5c1.1,2.1,2.7,2.4,3.2,2.5
				C64.5,64.4,75,52.1,75,34.5c0-9.7,0-25.6,0-25.6c-3.1-1.1-15.8-5.9-36-5.9S6,7.8,3,8.8c0,0,0,16,0,25.6c0,7.7,2,14.5,5.4,20.4
				c0.3-3.6,2.7-5.3,2.7-8.8c0-2.4-0.7-4-0.7-6c0-3.7,5-11.3,7.6-14.4c0.1-0.1,0.2-0.3,0.5-0.3c0.2,0,0.3,0.1,0.4,0.3
				c0.3,0.4,0.4,0.6,0.7,0.6c0.3,0,0.4-0.2,0.4-0.4c0-0.6-0.7-1.7-0.7-5.9c0-2.9,0.7-3.6,2.5-5.3c0.3-0.3,1.4-1.3,2.3-1.3
				c1.1,0,1.6,0.6,2.3,1.3c1.1,1.1,2.7,3.2,3,3.5c0.1,0.1,0.1,0.2,0.3,0.2c0.5,0,1-0.2,3.2-0.2c4.1,0,10.3,0.6,13.5,1.7
				c1.6,0.5,2,0.9,2.4,0.9c0.2,0,0.2-0.1,0.2-0.3c0-0.2-0.4-0.5-0.4-0.8c0-0.2,0.2-0.3,0.3-0.4c2.4-1.3,4.4-2.2,6.3-2.2
				c1.1,0,1.6,0.9,2.1,1.9c0.4,0.7,0.7,1.7,0.7,2.7c0,2.5-1,4.1-1.7,5.1c0.4,0.4,0.9,0.9,1.2,1.3c0.6,0.7,1.2,1.6,1.2,2.5
				c0,0.4-0.2,1-0.3,1.5c0,0.2-0.2,0.7-0.6,0.7c-0.3,0-0.4-0.4-0.4-0.7c0-0.1,0-0.2,0-0.3c0-0.7-0.2-1.7-0.9-2.4
				c-0.8-0.8-1.5-1.4-2.4-1.4c-0.1,0-0.2,0-0.3,0c-1.5,0-2.1,0.6-2.5,1c-0.4,0.4-0.8,1-0.8,1.8c0,0.4,0.3,1,0.7,1.8
				c0.2,0.5,0.8,1.6,1.2,2.2c0.3,0.5,0.7,0.7,1.1,0.7c1,0,1.9-0.1,1.9-0.5c0-0.1,0-0.2-0.2-0.2c-0.1,0-0.2,0-0.3,0
				c-1.3,0-2.1-1.7-2.7-3.3c0.5-0.5,1.1-1,2.1-1c1.3,0,2.2,0.9,2.2,2.1c0,0.6-0.2,1.1-0.3,1.3C56,34,56,34.1,56,34.1
				c0,0.2,0.2,0.2,0.6,0.3c0.1,0,0.4,0.1,0.5,0.1c0.4,0.1,0.8,0.5,1,0.9c0.1,0.3,0.4,1,0.4,1.2c0.2,0.7,0.6,1.6,0.6,2.8
				c0,1.2-0.1,1.5-0.4,2.7c-0.4,1.5-0.6,2.1-0.7,2.9c0.1,0.3,0.2,0.3,0.2,0.5c0.2,0.5,0.5,1.4,0.5,2.3c0,0.3,0,0.8,0,0.8
				c0,1.5-0.6,2.7-1.3,3.6C57,53,56.3,54,55.8,54.5c-0.3,0.3-0.6,0.6-1.1,0.6c-0.2,0-0.4-0.1-0.7-0.1c-0.3-0.1-0.8-0.2-1-0.3
				c-0.9-0.2-1.2-0.8-1.5-1.6c0-0.1-0.2-0.5-0.2-0.6c-0.2-0.5-0.3-0.9-0.7-0.9c-0.3,0-0.5,0.2-0.8,0.5c-0.9,1.3-1.4,1.8-3,2.2
				c-0.6,0.1-1.7,0.4-2.3,0.5c-0.9,0.2-2.6,0.7-3.6,0.7c-0.2,0-0.4,0-0.6,0c-1.3-0.2-2.2-0.3-3.8-2.2c-2.2-2.6-2-3-2.1-6.6
				c0-0.4-0.1-0.9-0.6-0.9c-0.4,0-0.5,0.8-0.7,1.8c-0.2,1.3-0.5,2.6-1.1,2.6c-0.4,0-0.7-0.1-1.4-0.3C30,49.7,28,49,26.9,48.7
				c-1.4-0.5-2.8-0.9-3.4-2.1c-0.3-0.6-0.7-1.7-1-2.3c-0.2-0.4-0.3-0.6-0.6-0.6c-0.4,0-0.5,0.5-0.5,0.8c0,0.4-0.2,1.3-0.2,1.9
				c-0.2,2.5-0.7,3.6-1.8,4.9c-0.5,0.6-0.9,1.3-1.5,2c-1.1,1.5-1.8,3-1.7,5.8c0,0.2,0,1.2,0,1.7C16.4,65.1,17.5,67.1,24.6,72.8z"/>
			<path id="XMLID_60_" class="st2" d="M58.1,35.5L58.1,35.5c0.1,0.3,0.4,1,0.4,1.2c0.2,0.7,0.6,1.6,0.6,2.8c0,1.2-0.1,1.5-0.4,2.7
				c-0.4,1.5-0.6,2.1-0.7,2.9c-0.1-0.2-2.3-4-2.4-4.3c-0.2-0.3-0.3-0.6-0.3-1c0-0.4,0.2-0.6,0.6-0.9c0.3-0.2,0.6-0.4,0.9-0.5
				c1.1-0.6,1.4-1.3,1.4-2C58.2,36.1,58.1,35.8,58.1,35.5z M48.6,41.5c0.1,0.3,0.2,0.6,0.2,0.9c0,0.6-0.1,0.7-0.4,1.1
				c-0.2,0.2-0.4,0.3-0.6,0.5c-0.3,0.2-0.6,0.4-0.8,0.6c-0.4,0.5-0.6,0.8-0.6,1.1c0,0.1,0,0.2,0.1,0.2c-0.4-0.3-0.6-0.8-0.6-1.2
				c0-0.4,0.1-0.6,0.1-1c0-0.3-0.1-0.6-0.1-0.8c-0.6-2-1.6-4.4-2.2-6c-0.6-1.7-1.1-2.6-1.9-2.6c-0.4,0-0.8,0.2-1.2,0.2
				c0.6,0,1.5-0.5,2.1-1.3c0.7-0.9,0.8-1.6,0.8-2.5c0-0.4-0.2-0.7-0.5-1.1c0.9,0.9,1.5,2.1,2.1,3.4C46.5,35.9,47.7,39,48.6,41.5z
				 M16.3,60.8c0-0.5,0-1.5,0-1.7c0-2.8,0.6-4.3,1.7-5.8c0.5-0.7,1-1.4,1.5-2c1.1-1.4,1.6-2.4,1.8-4.9c0.1-0.6,0.2-1.5,0.2-1.9
				c0-0.4,0.1-0.8,0.5-0.8c0.3,0,0.4,0.2,0.6,0.6c0.2,0.6,0.7,1.7,1,2.3c0.6,1.3,1.9,1.7,3.4,2.1c1.1,0.3,3.1,1,3.9,1.3
				c0.7,0.2,1,0.3,1.4,0.3c0.6,0,0.9-1.3,1.1-2.6c0.1-1.1,0.3-1.8,0.7-1.8c0.4,0,0.5,0.5,0.6,0.9c0.1,3.6-0.1,3.9,2.1,6.6
				c1.6,1.9,2.5,2,3.8,2.2c-0.5-0.1-1.1-0.7-1.1-1.9c0-0.2,0-1.1,0-1.3c0-0.6,0.1-1.3,0.4-2c0.1-0.3,0.3-1,0.5-1.4
				c0.3-0.7,0.1-0.8,0.1-1.3c0-0.5-0.2-1-0.5-2.1c-0.2-0.6-0.5-1.5-0.7-2.2c-0.8-2.2-1.1-2.8-3.8-3.1c-0.9-0.1-4.6-0.6-5.4-0.8
				c-3-0.4-5.4-0.6-6.6-2.6c-1.5-2.4-1.3-5.3-2.7-5.3c-0.7,0-1,0.7-1,1.8c0,1.1,0.4,3,0.4,6.2c0,2.8-0.3,3.6-1.9,5.6
				c-0.4,0.5-1,1.3-1.4,1.8c-1.2,1.5-1.7,2.4-1.7,4.1C15.3,55.7,16,59.1,16.3,60.8z M47,71.6c0.1-1.1,0.6-3,0.6-3.7v0
				c0-0.4-0.1-0.5-0.4-0.5c-0.4,0-1.1,0.6-1.9,1.5c-1.1,1.1-2.3,2.4-3.5,3.7c-2.9,3.1-2.8,5.6-2.8,10l0,0c3.3-2,6.2-3.9,8.4-5.4
				C47.1,75.3,46.8,74,47,71.6z"/>
		</g>
	</g>
	<path class="st1" d="M93.6,12.3h-2.4V8.8h11c5.8,0,8.8,3,8.8,7.3c0,5.1-4,7.3-8.8,7.3h-3.6v5.7h2.4v3.5h-9.7v-3.5h2.4V12.3z
		 M101.7,20c2.5,0,4.1-1.4,4.1-3.8c0-2.2-1.4-3.9-4.2-3.9h-3V20H101.7z M117,24.8c0.1,2.8,2.3,4.6,5.7,4.6c2.9,0,4.7-0.8,5.5-1.1V32
		c-0.7,0.3-2.7,1.1-6.6,1.1c-6.9,0-9.8-4.3-9.8-9.2c0-5.6,3.4-9.4,9-9.4c6.1,0,8.6,4.6,8.6,10.4H117z M124.3,21.6
		c0-2.5-1.4-3.9-3.6-3.9c-2.2,0-3.4,1.4-3.6,3.9H124.3z M249.1,24.8c0.1,2.8,2.3,4.6,5.7,4.6c2.9,0,4.7-0.8,5.5-1.1V32
		c-0.7,0.3-2.7,1.1-6.6,1.1c-6.9,0-9.8-4.3-9.8-9.2c0-5.6,3.4-9.4,9-9.4c6.1,0,8.6,4.6,8.6,10.4H249.1z M256.3,21.6
		c0-2.5-1.4-3.9-3.6-3.9c-2.2,0-3.4,1.4-3.6,3.9H256.3z M133.9,18.3h-2.3v-3.5h6.5l0.1,2.3h0.1c0.3-0.5,1.9-2.7,5.5-2.7
		c4.5,0,6.9,3.2,6.9,7.1v7.6h2v3.5h-8.8v-3.5h1.9v-6.8c0-2.5-1.4-3.8-3.6-3.8c-2,0-3.6,1.1-3.6,3.8v6.8h2v3.5h-8.8v-3.5h1.9V18.3z
		 M157.1,18.3h-2.3v-3.5h6.5l0.1,2.3h0.1c0.3-0.5,1.9-2.7,5.5-2.7c4.5,0,6.9,3.2,6.9,7.1v7.6h2v3.5h-8.8v-3.5h1.9v-6.8
		c0-2.5-1.4-3.8-3.6-3.8c-2,0-3.6,1.1-3.6,3.8v6.8h2v3.5h-8.8v-3.5h1.9V18.3z M233.2,11h4.8v3.8h4.8v3.5h-4.8v7.9
		c0,2.4,0.8,3.1,2.8,3.1c0.7,0,1.8-0.2,2.1-0.3v3.4c-0.4,0.1-2.1,0.6-3.9,0.6c-3.5,0-5.8-1.9-5.8-5v-9.7h-2.4v-3.5h2.4V11z M201,11
		h4.8v3.8h4.8v3.5h-4.8v7.9c0,2.4,0.8,3.1,2.8,3.1c0.7,0,1.8-0.2,2.1-0.3v3.4c-0.4,0.1-2.1,0.6-3.9,0.6c-3.5,0-5.8-1.9-5.8-5v-9.7
		h-2.4v-3.5h2.4V11z M223.7,21.3c0-2.5-1.2-3.4-3.6-3.4c-1.5,0-2.6,0.4-3,0.5v2.4h-3.9v-4.5c0.6-0.4,3.5-1.8,6.8-1.8
		c5,0,8.2,2,8.2,7c0,2.9,0,7.7,0,7.7h1.8v3.5h-5.8l-0.1-2.4H224c-0.4,0.5-1.7,2.8-5.7,2.8c-4,0-6-2.4-6-5.2c0-3.4,2.6-5.7,9.1-5.7
		c0.3,0,1.8,0,2.1,0V21.3z M222.3,25.1c-3.9,0-5.1,0.8-5.1,2.4c0,1.1,0.7,2.1,2.6,2.1c1.9,0,3.8-1.5,3.8-4.5H222.3z M191.4,12.5
		c-0.4-0.1-1.8-0.6-3-0.6c-2.8,0-3.9,1.5-3.9,2.8c0,1.7,1.3,2.5,2.8,2.9l2.4,0.6c3.3,0.9,7,2.3,7,7.2c0,4.5-2.9,7.6-9.4,7.6
		c-2.5,0-5.1-0.3-8.1-1.3v-6.3h4.3v3.1c0.7,0.2,2.6,0.7,4.3,0.7c2.5,0,3.8-1.1,3.8-2.9c0-1.5-0.8-2.6-3.9-3.4l-2-0.6
		c-4.7-1.3-6.2-3.5-6.2-7.2c0-3.8,2.5-6.8,8.9-6.8c2.8,0,5.5,0.5,7.4,1.3v5.7h-4.3V12.5z M105.4,63.7c-0.9,0.5-2.7,0.9-5,0.9
		C95,64.6,91,61.2,91,55c0-6,4-10,9.9-10c2.4,0,3.9,0.5,4.5,0.8l-0.6,2c-0.9-0.4-2.3-0.8-3.8-0.8c-4.5,0-7.4,2.9-7.4,7.8
		c0,4.7,2.7,7.7,7.3,7.7c1.5,0,3-0.3,4-0.8L105.4,63.7z M120.4,57.4c0,5.1-3.5,7.3-6.8,7.3c-3.7,0-6.6-2.7-6.6-7
		c0-4.6,3-7.3,6.8-7.3C117.8,50.3,120.4,53.2,120.4,57.4z M109.6,57.5c0,3,1.7,5.3,4.2,5.3c2.4,0,4.2-2.2,4.2-5.3
		c0-2.3-1.2-5.3-4.1-5.3C110.9,52.2,109.6,54.9,109.6,57.5z M123.6,44.3h2.5v20h-2.5V44.3z M130.2,44.3h2.5v20h-2.5V44.3z
		 M138.3,57.9c0.1,3.4,2.2,4.7,4.7,4.7c1.8,0,2.9-0.3,3.8-0.7l0.4,1.8c-0.9,0.4-2.4,0.8-4.5,0.8c-4.2,0-6.7-2.8-6.7-6.9
		c0-4.1,2.4-7.4,6.4-7.4c4.5,0,5.6,3.9,5.6,6.4c0,0.5-0.1,0.9-0.1,1.2H138.3z M145.6,56.1c0-1.6-0.6-4-3.4-4c-2.5,0-3.6,2.3-3.8,4
		H145.6z M162.8,50.6c-0.1,1-0.1,2.1-0.1,3.8v7.9c0,3.1-0.6,5.1-1.9,6.2c-1.3,1.2-3.2,1.6-5,1.6c-1.6,0-3.4-0.4-4.5-1.1l0.6-1.9
		c0.9,0.6,2.3,1.1,4,1.1c2.5,0,4.4-1.3,4.4-4.8V62h-0.1c-0.8,1.3-2.2,2.3-4.3,2.3c-3.4,0-5.8-2.9-5.8-6.7c0-4.6,3-7.3,6.2-7.3
		c2.4,0,3.7,1.2,4.3,2.4h0.1l0.1-2.1H162.8z M160.3,56c0-0.4,0-0.8-0.1-1.1c-0.5-1.4-1.7-2.6-3.5-2.6c-2.4,0-4.1,2-4.1,5.2
		c0,2.7,1.4,4.9,4,4.9c1.5,0,2.9-1,3.4-2.5c0.1-0.4,0.2-0.9,0.2-1.3V56z M168.2,57.9c0.1,3.4,2.2,4.7,4.7,4.7c1.8,0,2.9-0.3,3.8-0.7
		l0.4,1.8c-0.9,0.4-2.4,0.8-4.5,0.8c-4.2,0-6.7-2.8-6.7-6.9c0-4.1,2.4-7.4,6.4-7.4c4.5,0,5.6,3.9,5.6,6.4c0,0.5-0.1,0.9-0.1,1.2
		H168.2z M175.5,56.1c0-1.6-0.6-4-3.4-4c-2.5,0-3.6,2.3-3.8,4H175.5z M199.3,57.4c0,5.1-3.5,7.3-6.8,7.3c-3.7,0-6.6-2.7-6.6-7
		c0-4.6,3-7.3,6.8-7.3C196.7,50.3,199.3,53.2,199.3,57.4z M188.5,57.5c0,3,1.7,5.3,4.2,5.3c2.4,0,4.2-2.2,4.2-5.3
		c0-2.3-1.2-5.3-4.1-5.3C189.8,52.2,188.5,54.9,188.5,57.5z M202.7,64.3V52.5h-1.9v-1.9h1.9V50c0-1.9,0.4-3.7,1.6-4.8
		c0.9-0.9,2.2-1.3,3.3-1.3c0.9,0,1.6,0.2,2.1,0.4l-0.3,1.9c-0.4-0.2-0.9-0.3-1.6-0.3c-2.1,0-2.7,1.9-2.7,4v0.7h3.3v1.9h-3.3v11.8
		H202.7z M219.9,58.3l-2,6h-2.5l6.5-19h3l6.5,19h-2.6l-2-6H219.9z M226.1,56.4l-1.9-5.5c-0.4-1.2-0.7-2.4-1-3.5h-0.1
		c-0.3,1.1-0.6,2.3-1,3.4l-1.9,5.5H226.1z M233.9,54.9c0-1.6,0-3-0.1-4.3h2.2l0.1,2.7h0.1c0.6-1.8,2.1-3,3.8-3c0.3,0,0.5,0,0.7,0.1
		v2.3c-0.3-0.1-0.5-0.1-0.8-0.1c-1.8,0-3,1.3-3.3,3.2c-0.1,0.3-0.1,0.7-0.1,1.2v7.3h-2.5V54.9z M246.8,46.7v3.9h3.6v1.9h-3.6v7.4
		c0,1.7,0.5,2.7,1.9,2.7c0.6,0,1.1-0.1,1.4-0.2l0.1,1.9c-0.5,0.2-1.2,0.3-2.2,0.3c-1.2,0-2.1-0.4-2.7-1c-0.7-0.7-1-1.9-1-3.6v-7.5
		h-2.1v-1.9h2.1v-3.3L246.8,46.7z M252.8,61.8c0.7,0.5,2,1,3.3,1c1.8,0,2.7-0.9,2.7-2c0-1.2-0.7-1.8-2.5-2.5
		c-2.5-0.9-3.6-2.2-3.6-3.9c0-2.2,1.8-4,4.7-4c1.4,0,2.6,0.4,3.4,0.8L260,53c-0.5-0.3-1.5-0.8-2.8-0.8c-1.5,0-2.3,0.8-2.3,1.9
		c0,1.1,0.8,1.6,2.6,2.3c2.4,0.9,3.6,2.1,3.6,4.1c0,2.4-1.9,4.1-5.1,4.1c-1.5,0-2.9-0.4-3.8-0.9L252.8,61.8z M99.6,92.5l-0.2-1.7
		h-0.1c-0.8,1.1-2.2,2-4.2,2c-2.8,0-4.2-1.9-4.2-3.9c0-3.3,2.9-5.1,8.2-5.1v-0.3c0-1.1-0.3-3.2-3.1-3.2c-1.3,0-2.6,0.4-3.6,1
		l-0.6-1.6c1.1-0.7,2.8-1.2,4.5-1.2c4.2,0,5.2,2.9,5.2,5.6v5.1c0,1.2,0.1,2.3,0.2,3.3H99.6z M99.2,85.6c-2.7-0.1-5.8,0.4-5.8,3.1
		c0,1.6,1.1,2.4,2.3,2.4c1.8,0,2.9-1.1,3.3-2.3c0.1-0.3,0.1-0.5,0.1-0.8V85.6z M105.6,82.6c0-1.4,0-2.6-0.1-3.7h2.2l0.1,2.3h0.1
		c0.7-1.3,2.3-2.6,4.5-2.6c1.9,0,4.8,1.1,4.8,5.8v8.2h-2.5v-7.9c0-2.2-0.8-4-3.2-4c-1.6,0-2.9,1.2-3.3,2.5c-0.1,0.3-0.2,0.7-0.2,1.2
		v8.2h-2.5V82.6z M133.1,72.5V89c0,1.2,0,2.6,0.1,3.5H131l-0.1-2.4h-0.1c-0.8,1.5-2.4,2.7-4.7,2.7c-3.3,0-5.8-2.8-5.8-6.9
		c0-4.5,2.8-7.3,6.1-7.3c2.1,0,3.5,1,4.1,2.1h0.1v-8.2H133.1z M130.6,84.4c0-0.3,0-0.7-0.1-1c-0.4-1.6-1.7-2.9-3.6-2.9
		c-2.6,0-4.1,2.3-4.1,5.3c0,2.8,1.4,5.1,4,5.1c1.7,0,3.2-1.1,3.6-3c0.1-0.3,0.1-0.7,0.1-1.1V84.4z M146.4,86.5l-2,6h-2.5l6.5-19h3
		l6.5,19h-2.6l-2-6H146.4z M152.6,84.6l-1.9-5.5c-0.4-1.2-0.7-2.4-1-3.5h-0.1c-0.3,1.1-0.6,2.3-1,3.4l-1.9,5.5H152.6z M160.4,83.1
		c0-1.6,0-3-0.1-4.3h2.2l0.1,2.7h0.1c0.6-1.8,2.1-3,3.8-3c0.3,0,0.5,0,0.7,0.1V81c-0.3-0.1-0.5-0.1-0.8-0.1c-1.8,0-3,1.3-3.3,3.2
		c-0.1,0.3-0.1,0.7-0.1,1.2v7.3h-2.5V83.1z M179.1,92c-0.6,0.3-2.1,0.8-3.9,0.8c-4.1,0-6.8-2.8-6.8-7c0-4.2,2.9-7.3,7.3-7.3
		c1.5,0,2.8,0.4,3.4,0.7l-0.6,1.9c-0.6-0.3-1.5-0.6-2.9-0.6c-3.1,0-4.8,2.3-4.8,5.2c0,3.2,2,5.1,4.7,5.1c1.4,0,2.3-0.4,3-0.7
		L179.1,92z M182,72.5h2.5V81h0.1c0.4-0.7,1-1.3,1.8-1.8c0.7-0.4,1.6-0.7,2.5-0.7c1.8,0,4.8,1.1,4.8,5.8v8.1h-2.5v-7.8
		c0-2.2-0.8-4.1-3.2-4.1c-1.6,0-2.9,1.1-3.3,2.5c-0.1,0.3-0.2,0.7-0.2,1.2v8.2H182V72.5z M200.4,75c0,0.8-0.6,1.5-1.6,1.5
		c-0.9,0-1.5-0.7-1.5-1.5c0-0.9,0.6-1.6,1.6-1.6C199.8,73.5,200.4,74.1,200.4,75z M197.7,92.5V78.9h2.5v13.7H197.7z M207.3,74.9v3.9
		h3.6v1.9h-3.6v7.4c0,1.7,0.5,2.7,1.9,2.7c0.6,0,1.1-0.1,1.4-0.2l0.1,1.9c-0.5,0.2-1.2,0.3-2.2,0.3c-1.2,0-2.1-0.4-2.7-1
		c-0.7-0.7-1-1.9-1-3.6v-7.5h-2.1v-1.9h2.1v-3.3L207.3,74.9z M214.8,86.1c0.1,3.4,2.2,4.7,4.7,4.7c1.8,0,2.9-0.3,3.8-0.7l0.4,1.8
		c-0.9,0.4-2.4,0.8-4.5,0.8c-4.2,0-6.7-2.8-6.7-6.9c0-4.1,2.4-7.4,6.4-7.4c4.5,0,5.6,3.9,5.6,6.4c0,0.5-0.1,0.9-0.1,1.2H214.8z
		 M222.1,84.4c0-1.6-0.6-4-3.4-4c-2.5,0-3.6,2.3-3.8,4H222.1z M237.3,92c-0.6,0.3-2.1,0.8-3.9,0.8c-4.1,0-6.8-2.8-6.8-7
		c0-4.2,2.9-7.3,7.3-7.3c1.5,0,2.8,0.4,3.4,0.7l-0.6,1.9c-0.6-0.3-1.5-0.6-2.9-0.6c-3.1,0-4.8,2.3-4.8,5.2c0,3.2,2,5.1,4.7,5.1
		c1.4,0,2.3-0.4,3-0.7L237.3,92z M243.6,74.9v3.9h3.6v1.9h-3.6v7.4c0,1.7,0.5,2.7,1.9,2.7c0.6,0,1.1-0.1,1.4-0.2l0.1,1.9
		c-0.5,0.2-1.2,0.3-2.2,0.3c-1.2,0-2.1-0.4-2.7-1c-0.7-0.7-1-1.9-1-3.6v-7.5H239v-1.9h2.1v-3.3L243.6,74.9z M261.4,88.8
		c0,1.4,0,2.7,0.1,3.7h-2.2l-0.1-2.2h-0.1c-0.6,1.1-2.1,2.5-4.5,2.5c-2.1,0-4.7-1.2-4.7-6v-8h2.5v7.6c0,2.6,0.8,4.3,3,4.3
		c1.7,0,2.8-1.2,3.3-2.3c0.1-0.4,0.2-0.8,0.2-1.3v-8.4h2.5V88.8z M265.5,83.1c0-1.6,0-3-0.1-4.3h2.2l0.1,2.7h0.1
		c0.6-1.8,2.1-3,3.8-3c0.3,0,0.5,0,0.7,0.1V81c-0.3-0.1-0.5-0.1-0.8-0.1c-1.8,0-3,1.3-3.3,3.2c-0.1,0.3-0.1,0.7-0.1,1.2v7.3h-2.5
		V83.1z M275.8,86.1c0.1,3.4,2.2,4.7,4.7,4.7c1.8,0,2.9-0.3,3.8-0.7l0.4,1.8c-0.9,0.4-2.4,0.8-4.5,0.8c-4.2,0-6.7-2.8-6.7-6.9
		c0-4.1,2.4-7.4,6.4-7.4c4.5,0,5.6,3.9,5.6,6.4c0,0.5-0.1,0.9-0.1,1.2H275.8z M283.1,84.4c0-1.6-0.6-4-3.4-4c-2.5,0-3.6,2.3-3.8,4
		H283.1z"/>
</g>
</svg>
