<?xml version="1.0" encoding="utf-8"?>
<!-- Generator: Adobe Illustrator 16.0.0, SVG Export Plug-In . SVG Version: 6.00 Build 0)  -->
<!DOCTYPE svg PUBLIC "-//W3C//DTD SVG 1.1//EN" "http://www.w3.org/Graphics/SVG/1.1/DTD/svg11.dtd" [
	<!ENTITY ns_extend "http://ns.adobe.com/Extensibility/1.0/">
	<!ENTITY ns_ai "http://ns.adobe.com/AdobeIllustrator/10.0/">
	<!ENTITY ns_graphs "http://ns.adobe.com/Graphs/1.0/">
	<!ENTITY ns_vars "http://ns.adobe.com/Variables/1.0/">
	<!ENTITY ns_imrep "http://ns.adobe.com/ImageReplacement/1.0/">
	<!ENTITY ns_sfw "http://ns.adobe.com/SaveForWeb/1.0/">
	<!ENTITY ns_custom "http://ns.adobe.com/GenericCustomNamespace/1.0/">
	<!ENTITY ns_adobe_xpath "http://ns.adobe.com/XPath/1.0/">
]>
<svg version="1.1" id="Layer_1" xmlns:x="&ns_extend;" xmlns:i="&ns_ai;" xmlns:graph="&ns_graphs;"
	 xmlns="http://www.w3.org/2000/svg" xmlns:xlink="http://www.w3.org/1999/xlink" x="0px" y="0px" width="250px" height="150px"
	 viewBox="0 0 250 150" enable-background="new 0 0 250 150" xml:space="preserve">
<metadata>
	<sfw  xmlns="&ns_sfw;">
		<slices></slices>
		<sliceSourceBounds  width="172.933" height="144.357" y="338.999" x="134.033" bottomLeftOrigin="true"></sliceSourceBounds>
	</sfw>
</metadata>
<g>
	<path fill="#FFFFFF" d="M192.882,26.137c12.802,11.69,21.321,26.629,17.776,44.373c-4.849,26.663-33.417,43.668-57.495,48.773
		c-20.121,4.931-43.709,3.37-63.012-2.06c-19.387-6.126-41.33-18.929-49.392-39.635c-6.426-19.304,1.644-38.645,16.713-51.451
		C78.378,8.605,104.024,1.889,132.552,3.333C154.973,5.31,175.63,11.565,192.882,26.137"/>
	<path fill="none" d="M192.882,26.137c12.802,11.69,21.321,26.629,17.776,44.373c-4.849,26.663-33.417,43.668-57.495,48.773
		c-20.121,4.931-43.709,3.37-63.012-2.06c-19.387-6.126-41.33-18.929-49.392-39.635c-6.426-19.304,1.644-38.645,16.713-51.451
		C78.378,8.605,104.024,1.889,132.552,3.333C154.973,5.31,175.63,11.565,192.882,26.137z"/>
	<path fill="#162952" d="M188.358,25.643c10.743,8.605,18.232,19.589,20.125,32.392c2.267,19.802-10.163,36.591-26.468,46.718
		c-21.935,13.335-49.803,17.768-77.051,13.045c-17.327-3.007-36.423-14.613-41.853-32.68c-5.471-15.886-1.487-33.875,10.17-45.563
		c7.273-7.942,16.007-13.911,24.774-18.764h-0.988c-14.903,3.409-28.852,9.549-39.802,22.139
		c-10.204,11.399-11.191,30.623-5.147,44.249c1.237,3.13,3.213,5.919,4.94,8.809C44.919,85.193,37.92,69.854,42.527,53.514
		C48.912,29.43,74.509,14.861,96.37,9.141C128.269,1.32,163.168,6.958,188.358,25.643"/>
	<path fill="none" d="M188.358,25.643c10.743,8.605,18.232,19.589,20.125,32.392c2.267,19.802-10.163,36.591-26.468,46.718
		c-21.935,13.335-49.803,17.768-77.051,13.045c-17.327-3.007-36.423-14.613-41.853-32.68c-5.471-15.886-1.487-33.875,10.17-45.563
		c7.273-7.942,16.007-13.911,24.774-18.764h-0.988c-14.903,3.409-28.852,9.549-39.802,22.139
		c-10.204,11.399-11.191,30.623-5.147,44.249c1.237,3.13,3.213,5.919,4.94,8.809C44.919,85.193,37.92,69.854,42.527,53.514
		C48.912,29.43,74.509,14.861,96.37,9.141C128.269,1.32,163.168,6.958,188.358,25.643z"/>
	<path fill="#FFFFFF" d="M126.417,20.702c11.645,2.102,22.677,5.68,33.496,9.88c3.496,1.727,5.057,5.842,8.07,8.606
		c8.967,7.286,20.002,10.823,27.366,20.615c2.64,4.778-0.058,9.684-2.838,13.542c-5.472,4.773-11.847,7.239-17.9,10.568
		c-5.97,2.808-11.939,5.563-18.067,7.912c-0.456,0.242,0.117,0.474,0.408,0.766l0.374,0.306c8.642-2.922,17.236-5.895,25.68-9.265
		c-0.863,2.963-2.475,6.011-3.82,8.976c-1.942,3.047-3.496,9.448-13.458,8.186l-24.583-3.827
		c-11.801,2.921-23.202,7.289-36.253,6.508c-4.69-0.448-9.058-2.715-11.772-6.908c-1.728-3.137-2.798-6.675-2.465-10.594
		c0.615,0.465,1.07,1.32,1.602,1.984c11.607,13.26,32.189,10.82,47.786,7.739c10.735-3.538,21.153-7.82,31.034-13.344
		c3.82-2.672,6.335-6.533,5.921-11.271c-0.824-9.713-11.484-15.48-19.046-19.058c-6.103-2.133-12.446-3.986-19.395-3.739
		l15.309-6.92c1.071-0.291,1.569,0.78,1.984,1.486c0.564,1.523,0.698,3.454-0.29,4.811c2.847,0.682,4.475,1.075,6.708,1.61
		c8.602,2.998,17.608,7.239,23.005,15.675c1.479,2.723,1.812,6.219,0.905,9.303l0.208,0.292c4.318-1.486,5.879-5.207,7.115-9.668
		c-0.117-5.111-5.429-8.113-8.884-11.155c-5.602-4.159-11.531-7.447-17.293-11.196c-3.62-2.147-4.856-6.837-8.726-8.402
		c-6.949-2.217-15.269-0.901-22.715-0.569c-12.923,1.396-24.979,4.894-35.439,12.259c1.162-9.385,3.296-18.56,6.51-27.161
		c1.519-3.504,3.288-7.908,7.322-9.303C120.489,9.547,123.079,16.63,126.417,20.702"/>
	<path fill="none" d="M126.417,20.702c11.645,2.102,22.677,5.68,33.496,9.88c3.496,1.727,5.057,5.842,8.07,8.606
		c8.967,7.286,20.002,10.823,27.366,20.615c2.64,4.778-0.058,9.684-2.838,13.542c-5.472,4.773-11.847,7.239-17.9,10.568
		c-5.97,2.808-11.939,5.563-18.067,7.912c-0.456,0.242,0.117,0.474,0.408,0.766l0.374,0.306c8.642-2.922,17.236-5.895,25.68-9.265
		c-0.863,2.963-2.475,6.011-3.82,8.976c-1.942,3.047-3.496,9.448-13.458,8.186l-24.583-3.827
		c-11.801,2.921-23.202,7.289-36.253,6.508c-4.69-0.448-9.058-2.715-11.772-6.908c-1.728-3.137-2.798-6.675-2.465-10.594
		c0.615,0.465,1.07,1.32,1.602,1.984c11.607,13.26,32.189,10.82,47.786,7.739c10.735-3.538,21.153-7.82,31.034-13.344
		c3.82-2.672,6.335-6.533,5.921-11.271c-0.824-9.713-11.484-15.48-19.046-19.058c-6.103-2.133-12.446-3.986-19.395-3.739
		l15.309-6.92c1.071-0.291,1.569,0.78,1.984,1.486c0.564,1.523,0.698,3.454-0.29,4.811c2.847,0.682,4.475,1.075,6.708,1.61
		c8.602,2.998,17.608,7.239,23.005,15.675c1.479,2.723,1.812,6.219,0.905,9.303l0.208,0.292c4.318-1.486,5.879-5.207,7.115-9.668
		c-0.117-5.111-5.429-8.113-8.884-11.155c-5.602-4.159-11.531-7.447-17.293-11.196c-3.62-2.147-4.856-6.837-8.726-8.402
		c-6.949-2.217-15.269-0.901-22.715-0.569c-12.923,1.396-24.979,4.894-35.439,12.259c1.162-9.385,3.296-18.56,6.51-27.161
		c1.519-3.504,3.288-7.908,7.322-9.303C120.489,9.547,123.079,16.63,126.417,20.702z"/>
	<path fill="#162952" d="M121.759,19.304c0.291,0.577,0.872,0.988,0.79,1.694C115.3,24,109.289,31.691,105.461,38.196h-0.199
		c1.063-7.696,3.039-14.981,6.335-21.732c0.938-1.274,1.519-3.043,3.171-3.666C118.348,13.048,119.667,17.041,121.759,19.304"/>
	<path fill="none" d="M121.759,19.304c0.291,0.577,0.872,0.988,0.79,1.694C115.3,24,109.289,31.691,105.461,38.196h-0.199
		c1.063-7.696,3.039-14.981,6.335-21.732c0.938-1.274,1.519-3.043,3.171-3.666C118.348,13.048,119.667,17.041,121.759,19.304z"/>
</g>
<g id="g3" transform="matrix(2.26431, 0, 0, 2.26431, -92.8604, -34.9417)">
	<path id="path15" fill="#162952" d="M97.605,75.795h2.523l1.133-4.739h0.512l-0.512,2.326h3.892l0.69-3.031
		c0.081-0.399-0.515-1.04-0.896-1.043h-5.836c-0.804,0.072-1.453,0.826-1.591,1.378l-0.97,4.07
		C96.434,75.29,97.145,75.795,97.605,75.795L97.605,75.795z"/>
	<path id="path17" fill="#162952" d="M76.235,78.477l1.202-5.085c0.256-0.005,0.402,0,0.588,0c-0.336,1.433-0.679,2.776-1.089,4.553
		c1.105,0,2.183,0,3.261,0l0.907-3.76c0.153-0.623,0.199-0.824,0.329-1.474c0.099-0.402-0.063-0.947-0.997-0.947h-3.938
		c-1.73,0-2.087,0.389-2.159,0.558l0.46-1.889c0.141-0.556-0.365-0.996-0.996-0.996l-7.02-0.002l-2.706,11.138h3.884l2.249-9.445
		l0.469-0.001l-1.346,5.951c0.68,0.004,3.437,0.32,4.158-1.053c-0.168,0.674-0.369,1.368-0.519,2.125
		c-0.109,0.554-0.308,1.214-0.146,1.756c0.146,0.337,0.534,0.65,0.885,0.668h5.288c0.632-0.003,0.922-1.388,1.097-2.102
		L76.235,78.477L76.235,78.477z"/>
	<path id="path19" fill="#162952" d="M116.704,72.632c-0.126-0.489-0.747-0.868-1.224-0.868h-6.161l0.212-0.998h-3.251l-2.311,9.807
		h3.204l1.733-7.192h4.403l-1.283,5.515h-0.497l1.163-4.987h-2.798c-0.223,0-0.593,0.346-0.702,0.628
		c-0.322,1.321-0.57,2.277-0.936,3.862c-0.111,0.478-0.189,1.189-0.074,1.506c0.175,0.337,0.532,0.668,0.853,0.668h5.974
		c0,0,1.709-7.201,1.731-7.294C116.758,73.185,116.796,72.991,116.704,72.632L116.704,72.632z"/>
	<path id="path21" fill="#162952" d="M126.908,77.945l1.201-4.991c0.141-0.617-0.454-1.192-1.138-1.189h-4.272
		c-0.32,0-0.908,0.151-1.287,0.406l0.114-0.406h-0.772l0.232-0.998h-3.185l-2.329,9.807h3.175l1.718-7.192h0.438l-1.233,5.387
		c-0.1,0.541-0.085,0.757,0.018,1.064c0.16,0.41,0.683,0.741,1.005,0.741h5.139c0.706,0.004,0.871-1.21,1.064-2.13h-3.72
		l1.178-5.063h0.453l-1.043,4.564L126.908,77.945L126.908,77.945z"/>
	<path id="path23" fill="#162952" d="M103.821,73.907h-2.707l-1.143,4.987h-0.557l0.59-2.601h-3.818c0,0-0.429,1.812-0.762,3.179
		c-0.131,0.531,0.552,1.096,0.951,1.1h5.91c0.765,0.014,1.198-0.412,1.349-0.852c0.04-0.116,0.735-2.877,1.192-4.973
		C104.904,74.409,104.52,73.907,103.821,73.907L103.821,73.907z"/>
	<path id="path25" fill="#162952" d="M87.862,71.764c-1.887,0-5.726,0-5.726,0l-2.099,8.808h3.327l1.598-6.811l0.055-0.369h0.526
		l-1.645,7.181h3.225c0,0,1.424-6.111,1.78-7.668C88.992,72.459,88.287,71.764,87.862,71.764L87.862,71.764z"/>
	<path id="path27" fill="#162952" d="M95.432,71.764c-1.887,0-5.727,0-5.727,0l-2.098,8.808h3.327l1.598-6.811l0.054-0.369h0.527
		l-1.646,7.181h3.225c0,0,1.426-6.111,1.781-7.668C96.561,72.459,95.857,71.764,95.432,71.764L95.432,71.764z"/>
	<path id="path29" fill="#162952" d="M127.932,78.895c-0.464,0-0.839,0.376-0.839,0.838c0,0.464,0.375,0.839,0.839,0.839
		c0.462,0,0.838-0.375,0.838-0.839C128.77,79.272,128.394,78.895,127.932,78.895 M127.932,80.393c-0.365,0-0.659-0.295-0.659-0.66
		s0.295-0.66,0.659-0.66c0.364,0,0.658,0.296,0.658,0.66S128.295,80.393,127.932,80.393L127.932,80.393z"/>
	<path id="path31" fill="#162952" d="M128.276,79.54c0-0.157-0.127-0.285-0.285-0.285h-0.404v0.959h0.181v-0.389h0.128l0.182,0.389
		h0.198l-0.189-0.407C128.197,79.769,128.276,79.663,128.276,79.54 M127.991,79.644h-0.224v-0.209h0.224
		c0.057,0,0.105,0.047,0.105,0.104C128.096,79.597,128.048,79.644,127.991,79.644L127.991,79.644z"/>
</g>
</svg>
