<?xml version="1.0" encoding="UTF-8" standalone="no"?>
<svg xmlns:rdf="http://www.w3.org/1999/02/22-rdf-syntax-ns#" xmlns="http://www.w3.org/2000/svg" xml:space="preserve" viewBox="0 0 150 150" version="1.1" xmlns:cc="http://creativecommons.org/ns#" xmlns:dc="http://purl.org/dc/elements/1.1/"><g transform="matrix(1.25 0 0 -1.25 -39.904 320.53)"><g><path d="m75.092 0.9082c-40.869 0-74 33.132-74 74-0.0002 40.872 33.131 74.002 74 74.002 40.868 0 73.998-33.13 73.998-74.002 0-40.868-33.13-74-73.998-74z" transform="matrix(.8 0 0 -.8 31.923 256.43)" stroke="#000" stroke-width="0.3"/><ellipse rx="52.255" ry="52.582" transform="scale(1,-1)" cy="-196.43" cx="92.25" fill="#fff"/><path d="m10.545 68.82c-0.054 0.588-0.102 1.174-0.137 1.762h8.539l-1.566 8.885h-6.932c0.043 0.588 0.093 1.179 0.153 1.76h0.136 29.244c-1.419-4.27-1.138-8.542 0.375-12.407h-29.642-0.17zm99.375 0c1.14 2.893 1.53 6.048 0.85 9.453-0.18 1.024-0.46 2.007-0.8 2.954h29.3c0.06-0.581 0.11-1.172 0.15-1.76h-8.18l1.56-8.885h6.66c-0.03-0.588-0.08-1.174-0.13-1.762h-29.41zm-82.645 1.762h9.34l-1.566 8.885h-9.342l1.568-8.885zm87.855 0h9.34l-1.56 8.885h-9.34l1.56-8.885z" transform="matrix(.8 0 0 -.8 31.923 256.43)" fill="#c32032"/><path d="m88.575 213.04c-0.54923-0.20519-0.74054-0.79608-1.0568-1.2219-1.0969-2.2494-1.7572-4.6778-2.1121-7.245h0.06634c1.279 2.1692 3.28 4.7302 5.6944 5.733 0.02777 0.2345-0.16354 0.37027-0.26073 0.56312-0.69888 0.75751-1.1386 2.0858-2.3312 2.1707m-24.076-13.568c-1.5366-5.4461 0.79608-10.564 4.8444-14.157-0.57855 0.95808-1.2358 1.8899-1.6477 2.9328-2.0164 4.5435-1.6863 10.948 1.714 14.746 3.6502 4.201 8.3002 6.2437 13.266 7.3838h0.33016c-2.9236-1.6184-5.8333-3.607-8.2616-6.256-3.8801-3.8986-5.2116-9.8893-3.3849-15.186 1.8097-6.0215 8.1753-9.8893 13.95-10.892 9.0809-1.5783 18.367-0.0987 25.68 4.346 5.4322 3.3772 9.5746 8.9729 8.8201 15.57-0.631 4.2658-3.1272 7.93-6.708 10.8-8.3959 6.2267-20.029 8.1058-30.66 5.5016-7.2835-1.9115-15.817-6.7651-17.943-14.789m21.468 11.616c0.50758 1.1694 1.0985 2.6335 2.4422 3.1026 2.072-0.071 2.9359-2.4299 4.0483-3.7845 3.8801-0.70351 7.5581-1.8961 11.167-3.2939 1.1633-0.57546 1.6847-1.947 2.686-2.8696 2.9915-2.4284 6.6679-3.6055 9.1241-6.8716 0.87785-1.5906-0.0216-3.2291-0.94728-4.5127-1.8236-1.5922-3.9495-2.4145-5.9675-3.5253-1.9902-0.93339-3.9773-1.8514-6.0215-2.6335-0.15119-0.0849 0.0417-0.15891 0.13885-0.25302l0.12188-0.10183c2.8804 0.97196 5.7484 1.9594 8.561 3.0825-0.2885-0.98739-0.82385-2.0025-1.2774-2.9899-0.64334-1.0152-1.1617-3.1488-4.4834-2.7261l-8.1907 1.2713c-3.9372-0.97196-7.7386-2.4268-12.086-2.1676-1.5628 0.15119-3.0177 0.9087-3.9233 2.3096-0.57546 1.0398-0.93339 2.2216-0.82385 3.5206 0.20673-0.14965 0.35793-0.43661 0.53689-0.65569 3.8678-4.4186 10.725-3.6101 15.925-2.5811 3.5808 1.1818 7.0521 2.6058 10.343 4.4448 1.2774 0.89328 2.1121 2.183 1.9779 3.7629-0.27616 3.2368-3.8292 5.1545-6.3532 6.3455-2.0303 0.7174-4.1439 1.3376-6.4612 1.2497l5.1036 2.308c0.35484 0.0926 0.52146-0.26227 0.65723-0.49678 0.19284-0.50295 0.2345-1.1509-0.0957-1.606 0.95036-0.22216 1.4965-0.35484 2.237-0.53226 2.868-0.99973 5.8703-2.4114 7.6677-5.2254 0.49524-0.90716 0.60324-2.072 0.30239-3.101l0.0694-0.0987c1.4394 0.49523 1.9578 1.7356 2.3713 3.226-0.0386 1.7002-1.8097 2.703-2.9622 3.7166-1.8652 1.3839-3.84 2.4854-5.7608 3.7336-1.208 0.71123-1.6199 2.2741-2.9097 2.7986-2.3173 0.73745-5.0881 0.29776-7.572 0.18976-4.3059-0.46746-8.3264-1.6307-11.81-4.0868 0.38416 3.1288 1.0985 6.1866 2.1661 9.0516m33.529-36.236-1.893-1.7927 1.0923-4.7533-4.6962 1.3422-1.9038-1.8035 7.3005-2.0303 2.8464-3.01 1.7002 1.6107-2.8063 2.9622-1.64 7.4748zm-8.9712-17.529-1.1957 2.3204 4.5806 2.3651-0.83311 1.6138-4.5821-2.3666-1.046 2.0288 4.9925 2.5749-0.90253 1.7495-7.0706-3.6518 4.8814-9.4511 7.1755 3.7027-0.90099 1.7464-5.0989-2.632zm-7.253 6.0266-2.8711-0.5261-3.2954-5.0897-0.79608 4.343-2.3003-0.42581 1.9208-10.463 2.3003 0.42118-0.61712 3.3725 1.0722 1.5736 4.0143-4.127 2.8881 0.53072-5.6466 5.5078 3.3309 4.8829zm-17.546-5.0644c0.14502 0.42581 0.35021 0.79608 0.6094 1.1154 0.26073 0.31627 0.58472 0.55849 0.96887 0.72511 0.3857 0.16662 0.84082 0.22833 1.3669 0.17742 0.28387-0.0293 0.55386-0.10182 0.80997-0.22216 0.24993-0.12188 0.47364-0.27616 0.66494-0.46284 0.18976-0.18822 0.3425-0.40113 0.45975-0.63717 0.11725-0.23296 0.18359-0.49061 0.19748-0.75906l2.2525-0.21907c-0.0093 0.61557-0.12342 1.1787-0.34404 1.6786-0.22062 0.50141-0.51992 0.93031-0.89945 1.2913-0.37953 0.36256-0.82076 0.6526-1.3237 0.87168-0.49986 0.21753-1.0445 0.35947-1.6261 0.41192-0.81305 0.0802-1.5551 0.0108-2.2293-0.21444-0.67729-0.22217-1.262-0.56621-1.7557-1.026-0.49524-0.45975-0.89328-1.0198-1.1972-1.6739-0.30239-0.6526-0.49369-1.3762-0.57238-2.1645-0.07405-0.76985-0.02469-1.5011 0.14811-2.1923 0.17125-0.69272 0.45667-1.3068 0.85316-1.8421 0.39495-0.53843 0.90253-0.98275 1.5243-1.3252 0.61866-0.34405 1.3345-0.55849 2.1445-0.63563 0.65414-0.0663 1.2605-0.0262 1.8251 0.11879 0.56158 0.14657 1.0645 0.38416 1.5073 0.72203 0.44124 0.33633 0.81151 0.75905 1.1124 1.2666 0.29776 0.51375 0.51066 1.0938 0.63409 1.7511l-2.254 0.22216c-0.15891-0.70351-0.4613-1.2543-0.90253-1.6523-0.44278-0.39341-1.0213-0.55386-1.731-0.48906-0.52455 0.0524-0.95962 0.19747-1.3067 0.43661-0.34404 0.23759-0.61557 0.53843-0.81151 0.89636-0.19285 0.35792-0.3209 0.74979-0.3857 1.1849-0.06171 0.42427-0.06943 0.86396-0.02777 1.3098 0.04628 0.46284 0.14194 0.91025 0.2885 1.3361m-4.9878 5.1799c-0.48598 0.51221-1.1108 0.92876-1.8714 1.2435-0.75442 0.3101-1.4857 0.45821-2.1954 0.43815-0.71277-0.0123-1.3715-0.17279-1.9779-0.47209-0.60786-0.29776-1.1494-0.71277-1.6307-1.2512-0.48135-0.53844-0.87322-1.1741-1.1756-1.91-0.29622-0.71431-0.46284-1.4302-0.49524-2.1368-0.03857-0.71277 0.05708-1.3839 0.28079-2.0133 0.22216-0.631 0.58009-1.1972 1.0738-1.711 0.49369-0.50912 1.117-0.9195 1.8699-1.2311 0.7606-0.31165 1.495-0.46438 2.1985-0.4505 0.70506 0.017 1.3607 0.16662 1.9624 0.45821 0.60323 0.28387 1.1432 0.6958 1.6199 1.2234 0.47518 0.52764 0.86088 1.1525 1.1571 1.8668 0.30393 0.73437 0.47518 1.461 0.51375 2.18 0.04011 0.72048-0.04937 1.4008-0.26999 2.0426-0.21908 0.63718-0.57238 1.2126-1.0599 1.7233m-0.97196-3.7397c-0.07097-0.44278-0.19593-0.88093-0.37336-1.3114-0.17125-0.41192-0.38416-0.79762-0.64334-1.1432-0.25765-0.3533-0.5554-0.6418-0.89636-0.86396-0.33941-0.22679-0.71894-0.36256-1.137-0.40884-0.41655-0.0509-0.86859 0.0262-1.3546 0.22988-0.48752 0.19902-0.86088 0.46438-1.1247 0.79299-0.26073 0.32707-0.43352 0.69271-0.51375 1.0923-0.08331 0.39958-0.09102 0.81459-0.02623 1.2419 0.0648 0.43507 0.18051 0.85471 0.3533 1.2682 0.17742 0.4289 0.39958 0.82539 0.6634 1.1941 0.26227 0.36101 0.56466 0.65723 0.90562 0.88711 0.3425 0.23141 0.72357 0.37027 1.1401 0.41501 0.4181 0.0478 0.87013-0.0278 1.3561-0.22834 0.48598-0.19902 0.86088-0.46746 1.1232-0.79299 0.26073-0.33016 0.43352-0.6958 0.51221-1.1016 0.08177-0.40112 0.0864-0.82539 0.01543-1.2713m-8.533 8.9622-2.6413-3.1149-3.2831 2.7863 2.6413 3.1134-1.7819 1.5135-6.8855-8.1089 1.785-1.515 2.9683 3.499 3.2831-2.7863-2.9699-3.5021 1.7819-1.5119 6.8855 8.1151-1.7835 1.5119zm49.055 48.104 3.9295-6.9395 1.6909 0.9519-2.7925 4.9338 2.2417 1.2713 2.5101-4.4309 1.5613 0.88402-2.5086 4.4324 1.9609 1.1062 2.7307-4.8305 1.6924 0.96115-3.8709 6.8377-9.1457-5.1776zm-4.0898 4.4798 1.5968-1.6693 6.1881 5.9259 2.18-2.2772 1.4024 1.3407-5.9536 6.2205-1.4039-1.3407 2.1784-2.2756-6.1881-5.9243zm-7.3725 5.6139 1.9825 1.4903 3.2707-2.18-0.63717-2.3898 1.9964-1.3283 2.558 10.926-1.9732 1.3098-9.1333-6.5399 1.9362-1.2882zm6.7173 5.0403 0.0247-0.0185-1.0352-3.9418-2.2679 1.5073 3.2784 2.453zm-10.068-3.5111 3.0717 7.9947 2.9406-1.1309 0.69889 1.8128-8.041 3.0918-0.69426-1.8159 2.9406-1.1293-3.0732-7.9978 2.1568-0.82539zm-12.419 3.4711c0.37953-0.35329 0.83002-0.62791 1.3561-0.8331 0.52146-0.20674 1.0738-0.34096 1.6477-0.41039 0.71123-0.0787 1.3469-0.0694 1.9084 0.0324 0.56158 0.10183 1.0383 0.28079 1.441 0.53227 0.39958 0.2561 0.71432 0.577 0.94728 0.96578 0.2345 0.38879 0.37798 0.81923 0.43506 1.299 0.0663 0.58627 0 1.0784-0.20519 1.4857-0.20519 0.39959-0.46592 0.73437-0.78065 1.0028-0.31473 0.26073-0.63872 0.46283-0.9735 0.60477-0.33324 0.14348-0.59706 0.24685-0.78682 0.30702-0.63254 0.24376-1.1463 0.44124-1.5382 0.59397-0.39187 0.15582-0.69734 0.30085-0.91179 0.43353-0.21908 0.13576-0.35793 0.26998-0.42118 0.40421-0.06325 0.13576-0.08177 0.30701-0.05863 0.51066 0.02623 0.22679 0.09565 0.4073 0.20982 0.53689 0.11571 0.1404 0.25302 0.24376 0.4181 0.32245 0.16045 0.0818 0.33633 0.12805 0.52609 0.14965 0.19131 0.017 0.37798 0.017 0.56312-0.009 0.28387-0.0293 0.54152-0.0879 0.77294-0.16354 0.23296-0.0771 0.43661-0.18359 0.60786-0.32398 0.16971-0.13577 0.30084-0.31319 0.38878-0.53072 0.08948-0.21599 0.12497-0.48444 0.108-0.79917l2.2232-0.26073c0.0694 0.60632 0.0139 1.134-0.16662 1.5844-0.17896 0.45049-0.44741 0.83465-0.8038 1.1525-0.35947 0.31782-0.78374 0.56775-1.2713 0.74826-0.48752 0.18205-1.0028 0.30084-1.549 0.36564-0.46901 0.0525-0.94419 0.0478-1.4255-0.0262-0.48135-0.0725-0.92413-0.21753-1.3253-0.43661-0.40267-0.21908-0.739-0.51375-1.0136-0.88556-0.27462-0.36564-0.44432-0.81922-0.50604-1.353-0.05708-0.47827-0.01389-0.89636 0.12805-1.2558 0.14039-0.35484 0.34404-0.6634 0.6094-0.92259 0.2669-0.25765 0.57855-0.47672 0.93185-0.66186 0.3533-0.18668 0.71894-0.34867 1.0985-0.49215 0.36564-0.14965 0.73128-0.29159 1.0923-0.42272 0.35947-0.13268 0.67883-0.27462 0.95653-0.42273 0.27924-0.14965 0.49832-0.32707 0.65723-0.51992 0.16045-0.19593 0.2237-0.43815 0.19131-0.72048-0.03086-0.26228-0.12342-0.47364-0.28079-0.62792-0.15582-0.15582-0.3425-0.26999-0.55695-0.34096-0.21599-0.071-0.44432-0.11108-0.68191-0.12342-0.23913-0.003-0.45975 0.003-0.66494 0.0262-0.30084 0.0386-0.58935 0.10645-0.86242 0.21445-0.27462 0.10645-0.50758 0.24838-0.69888 0.42118-0.19131 0.17433-0.33941 0.39187-0.43661 0.64951-0.0972 0.25919-0.12805 0.56466-0.0864 0.91488l-2.2216 0.26073c-0.08485-0.64334-0.0324-1.2142 0.15736-1.7079 0.18822-0.49524 0.47209-0.9195 0.85162-1.2682m-12.451-2.6029-1.8637 6.7852 0.03086 0.008 6.0771-5.6281 2.2293 0.61403-2.7832 10.133-2.0859-0.57238 1.8668-6.796-0.03086-0.0123-6.0956 5.6404-2.2139-0.60786 2.7832-10.135 2.0859 0.57084zm-8.9919-4.6995-3.7552 5.9505 0.02623 0.017 7.4517-3.6194 1.9532 1.2342-5.608 8.8865-1.8313-1.1556 3.7644-5.9629-0.02623-0.0123-7.4702 3.6225-1.9424-1.2281 5.608-8.8865 1.8298 1.154zm-2.5104-1.7665-1.4441 1.299-3.7953-4.2041-1.9115 1.7233 3.4127 3.7814-1.3345 1.2034-3.4111-3.7798-1.6724 1.5058 3.7166 4.1239-1.4425 1.2975-5.2655-5.8333 7.805-7.0398 5.3427 5.9228zm-8.6629-11.953-3.354 1.7171 1.1077 2.163c0.2993 0.58318 0.47055 1.1232 0.51066 1.623 0.04011 0.49987-0.01389 0.94882-0.16045 1.3484-0.14657 0.39958-0.37181 0.75288-0.6742 1.0537-0.30084 0.30856-0.6418 0.55232-1.0167 0.74517-0.38261 0.19747-0.78528 0.33015-1.2034 0.39804-0.41964 0.0648-0.83311 0.0386-1.245-0.0756-0.41193-0.11571-0.80688-0.33479-1.188-0.65569-0.38261-0.3209-0.72203-0.77756-1.0198-1.3623l-2.163-4.2164 9.3524-4.795 1.0537 2.0565zm-3.8354 4.8444c-0.07714-0.23913-0.17588-0.4721-0.29776-0.70969l-0.82076-1.5983-2.8002 1.4379 0.81768 1.5968c0.12034 0.23914 0.2561 0.45667 0.40267 0.65415 0.14811 0.20365 0.31319 0.35793 0.49832 0.47363 0.18514 0.11417 0.39495 0.17588 0.631 0.17897 0.23296 0.009 0.50141-0.0648 0.79762-0.21754 0.29622-0.15427 0.51066-0.32244 0.64334-0.51837 0.12959-0.19594 0.20519-0.40113 0.22062-0.61866 0.01543-0.21445-0.01543-0.44433-0.09257-0.67883m77.964 12.736c-9.7165 13.017-25.239 21.466-42.697 21.466-29.359 0-53.246-23.887-53.246-53.248 0-11.975 3.9773-23.042 10.679-31.95 9.715-13.018 25.235-21.459 42.691-21.459 29.359 0 53.246 23.884 53.246 53.245 0 11.975-3.9758 23.04-10.673 31.945m8.7723-36.999c-2.6258-26.082-24.706-46.511-51.469-46.511-16.887 0-31.908 8.1336-41.356 20.687-5.4862 7.3483-9.0654 16.202-10.002 25.823h-0.10954c-0.04783 0.46438-0.08794 0.93647-0.12188 1.407-0.09257 1.2589-0.14194 2.5286-0.14194 3.8107 0 1.1077 0.03857 2.2062 0.10954 3.2985 0.02777 0.47055 0.0648 0.93802 0.108 1.4086h0.13731c2.4638 26.251 24.618 46.859 51.5 46.859 16.889 0 31.91-8.1321 41.359-20.69 5.551-7.4424 9.1472-16.42 10.033-26.169 0.0417-0.47055 0.0771-0.93802 0.10799-1.4086 0.0679-1.0923 0.10646-2.1908 0.10646-3.2985 0-1.2821-0.0463-2.5518-0.1404-3.8107-0.0355-0.47056-0.074-0.94265-0.12034-1.407" fill="#091f40"/></g></g></svg>
